<svg width="54" height="54" viewBox="0 0 54 54" fill="none" xmlns="http://www.w3.org/2000/svg">
<path d="M0 11.4286C0 5.11673 5.11675 0 11.4286 0H41.9048C48.2166 0 53.3333 5.11675 53.3333 11.4286V41.9048C53.3333 48.2166 48.2166 53.3333 41.9048 53.3333H11.4286C5.11673 53.3333 0 48.2166 0 41.9048V11.4286Z" fill="#E17236"/>
<path d="M40.0001 40.3734H30.6501L27.7697 37.6549C26.5328 38.6969 25.1596 39.7369 23.6506 40.7789H22.4853L20.8492 39.7513C22.7052 38.4889 24.396 37.2028 25.9019 35.89C27.5187 34.4818 28.9231 33.0444 30.089 31.5703C33.7385 26.966 35.0669 22.026 33.3107 16.6432H29.6592L29.7421 11.7039L37.6061 16.6432H34.4361C37.5239 22.216 36.7472 27.7893 32.1068 33.3633L40.0001 40.3734Z" fill="white"/>
<path d="M28.811 30.1286C27.6626 31.5523 26.2843 32.9897 24.6725 34.4253C22.9817 35.9343 21.0317 37.4414 18.8202 38.9287L21.2802 40.4738H13.3334L13.4162 35.5344L15.8669 37.074C18.2553 35.3464 20.3136 33.6293 22.0437 31.9422L14.0371 24.384H22.3433L25.8839 27.5291C28.6547 23.6304 29.5272 20.017 28.5382 16.9728H32.7912C33.9085 20.8154 32.6306 25.3929 28.811 30.1286Z" fill="black"/>
</svg>
