<svg width="32" height="32" viewBox="0 0 32 32" fill="none" xmlns="http://www.w3.org/2000/svg">
<path d="M0 8C0 3.58172 3.58172 0 8 0H24C28.4183 0 32 3.58172 32 8V24C32 28.4183 28.4183 32 24 32H8C3.58172 32 0 28.4183 0 24V8Z" fill="#E17236"/>
<path d="M24 24.224H18.39L16.6618 22.5929C15.9197 23.2181 15.0957 23.8421 14.1903 24.4673H13.4912L12.5095 23.8507C13.6231 23.0933 14.6376 22.3217 15.5411 21.5339C16.5112 20.6891 17.3538 19.8266 18.0534 18.9421C20.2431 16.1796 21.0401 13.2156 19.9864 9.9859H17.7955L17.8452 7.02229L22.5636 9.9859H20.6616C22.5143 13.3295 22.0483 16.6736 19.2641 20.018L24 24.224Z" fill="black"/>
<path d="M17.2866 18.0772C16.5975 18.9314 15.7706 19.7939 14.8035 20.6552C13.789 21.5606 12.619 22.4649 11.2921 23.3572L12.7681 24.2843H8L8.0497 21.3207L9.52011 22.2444C10.9532 21.2079 12.1881 20.1777 13.2262 19.1654L8.42225 14.6305H13.406L15.5303 16.5175C17.1928 14.1783 17.7163 12.0102 17.1229 10.1837H19.6747C20.3451 12.4893 19.5783 15.2358 17.2866 18.0772Z" fill="white"/>
</svg>
